%FSLAX35Y35*%
%MOIN*%
%IN16=KupferobenL1(X.Top)*%
%ADD10C,0.00591*%
%ADD11C,0.00256*%
%ADD12C,0.00472*%
%ADD13C,0.00512*%
%ADD14C,0.00650*%
%ADD15C,0.00787*%
%ADD16C,0.01181*%
%ADD17C,0.01575*%
%ADD18C,0.01969*%
%ADD19C,0.02362*%
%ADD20C,0.02756*%
%ADD21C,0.03150*%
%ADD22C,0.03937*%
%AMR_23*21,1,0.00787,0.00787,0,0,0.000*%
%ADD23R_23*%
%AMR_24*21,1,0.03200,0.03800,0,0,90.000*%
%ADD24R_24*%
%AMR_25*21,1,0.04409,0.06299,0,0,180.000*%
%ADD25R_25*%
%AMR_26*21,1,0.05000,0.05000,0,0,90.000*%
%ADD26R_26*%
%AMR_27*21,1,0.05512,0.07087,0,0,180.000*%
%ADD27R_27*%
%AMOCT_28*4,1,8,0.009843,0.006890,0.004921,0.011811,-0.004921,0.011811,-0.009843,0.006890,-0.009843,-0.006890,-0.004921,-0.011811,0.004921,-0.011811,0.009843,-0.006890,0.009843,0.006890,0.000*%
%ADD28OCT_28*%
%AMOCT_29*4,1,8,0.009843,0.006890,0.004921,0.011811,-0.004921,0.011811,-0.009843,0.006890,-0.009843,-0.006890,-0.004921,-0.011811,0.004921,-0.011811,0.009843,-0.006890,0.009843,0.006890,180.000*%
%ADD29OCT_29*%
%AMOCT_30*4,1,8,0.011811,0.005906,0.005906,0.011811,-0.005906,0.011811,-0.011811,0.005906,-0.011811,-0.005906,-0.005906,-0.011811,0.005906,-0.011811,0.011811,-0.005906,0.011811,0.005906,0.000*%
%ADD30OCT_30*%
%AMOCT_31*4,1,8,0.015748,0.007874,0.007874,0.015748,-0.007874,0.015748,-0.015748,0.007874,-0.015748,-0.007874,-0.007874,-0.015748,0.007874,-0.015748,0.015748,-0.007874,0.015748,0.007874,0.000*%
%ADD31OCT_31*%
%AMOCT_32*4,1,8,0.023622,0.011811,0.011811,0.023622,-0.011811,0.023622,-0.023622,0.011811,-0.023622,-0.011811,-0.011811,-0.023622,0.011811,-0.023622,0.023622,-0.011811,0.023622,0.011811,0.000*%
%ADD32OCT_32*%
%AMOCT_33*4,1,8,0.031496,0.015748,0.015748,0.031496,-0.015748,0.031496,-0.031496,0.015748,-0.031496,-0.015748,-0.015748,-0.031496,0.015748,-0.031496,0.031496,-0.015748,0.031496,0.015748,0.000*%
%ADD33OCT_33*%
%AMOCT_34*4,1,8,0.031496,0.015748,0.015748,0.031496,-0.015748,0.031496,-0.031496,0.015748,-0.031496,-0.015748,-0.015748,-0.031496,0.015748,-0.031496,0.031496,-0.015748,0.031496,0.015748,180.000*%
%ADD34OCT_34*%
%AMOCT_35*4,1,8,0.031496,0.015748,0.015748,0.031496,-0.015748,0.031496,-0.031496,0.015748,-0.031496,-0.015748,-0.015748,-0.031496,0.015748,-0.031496,0.031496,-0.015748,0.031496,0.015748,270.000*%
%ADD35OCT_35*%
%AMOCT_36*4,1,8,0.031496,0.019685,0.015748,0.035433,-0.015748,0.035433,-0.031496,0.019685,-0.031496,-0.019685,-0.015748,-0.035433,0.015748,-0.035433,0.031496,-0.019685,0.031496,0.019685,0.000*%
%ADD36OCT_36*%
%AMOCT_37*4,1,8,0.031496,0.019685,0.015748,0.035433,-0.015748,0.035433,-0.031496,0.019685,-0.031496,-0.019685,-0.015748,-0.035433,0.015748,-0.035433,0.031496,-0.019685,0.031496,0.019685,180.000*%
%ADD37OCT_37*%
%AMO_38*20,1,0.01000,0.00000,0.02748,0.00000,-0.02748,0*1,1,0.01000,0.00000,0.02748*1,1,0.01000,0.00000,-0.02748*%
%ADD38O_38*%
%AMO_39*20,1,0.02559,0.00807,0.00000,-0.00807,0.00000,0*1,1,0.02559,0.00807,0.00000*1,1,0.02559,-0.00807,0.00000*%
%ADD39O_39*%
%AMO_40*20,1,0.02559,-0.00807,0.00000,0.00807,0.00000,0*1,1,0.02559,-0.00807,0.00000*1,1,0.02559,0.00807,0.00000*%
%ADD40O_40*%
%AMRR_41*21,1,0.02559,0.03661,0,0,90.000*21,1,0.02047,0.04173,0,0,90.000*1,1,0.00512,-0.01831,0.01024*1,1,0.00512,0.01831,-0.01024*1,1,0.00512,0.01831,0.01024*1,1,0.00512,-0.01831,-0.01024*%
%ADD41RR_41*%
%AMRR_42*21,1,0.02559,0.03661,0,0,270.000*21,1,0.02047,0.04173,0,0,270.000*1,1,0.00512,0.01831,-0.01024*1,1,0.00512,-0.01831,0.01024*1,1,0.00512,-0.01831,-0.01024*1,1,0.00512,0.01831,0.01024*%
%ADD42RR_42*%
%AMRR_43*21,1,0.06299,0.05039,0,0,0.000*21,1,0.05039,0.06299,0,0,0.000*1,1,0.01260,0.02520,0.02520*1,1,0.01260,-0.02520,-0.02520*1,1,0.01260,0.02520,-0.02520*1,1,0.01260,-0.02520,0.02520*%
%ADD43RR_43*%
%AMRR_44*21,1,0.06299,0.05039,0,0,180.000*21,1,0.05039,0.06299,0,0,180.000*1,1,0.01260,-0.02520,-0.02520*1,1,0.01260,0.02520,0.02520*1,1,0.01260,-0.02520,0.02520*1,1,0.01260,0.02520,-0.02520*%
%ADD44RR_44*%
%AMRR_45*21,1,0.06299,0.05039,0,0,270.000*21,1,0.05039,0.06299,0,0,270.000*1,1,0.01260,0.02520,-0.02520*1,1,0.01260,-0.02520,0.02520*1,1,0.01260,-0.02520,-0.02520*1,1,0.01260,0.02520,0.02520*%
%ADD45RR_45*%
G54D10*
X59259Y55989D02*
X59259Y59015D01*
X59259Y55989D02*
X59960Y55287D01*
X59960Y49662D01*
X55322Y59015D02*
X55322Y55551D01*
X56210Y54662D01*
X56210Y53100D01*
X53353Y55644D02*
X53353Y59015D01*
X54023Y54975D02*
X53353Y55644D01*
X54023Y54975D02*
X54023Y49662D01*
X51385Y55425D02*
X51385Y59015D01*
X51385Y55425D02*
X52148Y54662D01*
X52148Y53100D01*
X51385Y29685D02*
X51385Y35912D01*
X53353Y29685D02*
X53353Y38725D01*
X55322Y29685D02*
X55322Y35912D01*
X59259Y29685D02*
X59259Y36225D01*
X61227Y55895D02*
X61227Y59015D01*
X61227Y55895D02*
X62148Y54975D01*
X62148Y53100D01*
X64648Y54662D02*
X63196Y56114D01*
X64648Y54662D02*
X64648Y49662D01*
X65164Y56021D02*
X65164Y59015D01*
X65164Y56021D02*
X66835Y54350D01*
X69101Y59015D02*
X69101Y49741D01*
X71070Y59015D02*
X71070Y53553D01*
X73038Y59015D02*
X73038Y50022D01*
X75007Y59015D02*
X75007Y53678D01*
X76975Y59015D02*
X76975Y49835D01*
X78944Y59015D02*
X78944Y53491D01*
X96660Y59015D02*
X96660Y49350D01*
X94648Y59015D02*
X94648Y53100D01*
X92723Y59015D02*
X92723Y49350D01*
X88786Y55836D02*
X89960Y54662D01*
X89960Y53100D01*
X86818Y54992D02*
X86818Y59015D01*
X86818Y54992D02*
X87773Y54037D01*
X87773Y49350D01*
X84849Y59015D02*
X84849Y53211D01*
X82881Y59015D02*
X82881Y49458D01*
X61227Y29685D02*
X61227Y42162D01*
X63196Y29685D02*
X63196Y35912D01*
X65164Y29685D02*
X65164Y42162D01*
X69101Y29685D02*
X69101Y35912D01*
X71070Y29685D02*
X71070Y42475D01*
X73038Y29685D02*
X73038Y35912D01*
X75007Y29685D02*
X75007Y42162D01*
X76975Y29685D02*
X76975Y35912D01*
X97148Y34037D02*
X98398Y35287D01*
X97148Y33100D02*
X97148Y34037D01*
X97148Y33100D02*
X96660Y32613D01*
X94692Y29685D02*
X94692Y34394D01*
X92723Y29685D02*
X92723Y36801D01*
X88786Y29685D02*
X88786Y36461D01*
X88398Y40912D02*
X86210Y38725D01*
X86210Y35600D01*
X86818Y34992D01*
X86818Y29685D01*
X83710Y38100D02*
X83710Y35600D01*
X84849Y34461D01*
X84849Y29685D01*
X82881Y29685D02*
X82881Y33929D01*
X81523Y35287D02*
X82881Y33929D01*
X81523Y35287D02*
X81523Y40600D01*
X83085Y42162D01*
X78944Y29685D02*
X78944Y34271D01*
X79648Y34975D01*
X79648Y41537D01*
X49416Y59015D02*
X49416Y54894D01*
X49960Y54350D01*
X49960Y50287D01*
X47448Y59015D02*
X47448Y53737D01*
X58398Y54662D02*
X58398Y51225D01*
X58398Y54662D02*
X57290Y55770D01*
X57290Y59015D01*
X49416Y34269D02*
X49416Y29685D01*
X49023Y34662D02*
X49416Y34269D01*
X49023Y34662D02*
X49023Y37475D01*
X49416Y37869D01*
G54D14*
X3937Y137824D02*
X3937Y142549D01*
X3937Y140187D02*
X8267Y140187D01*
X8267Y142549D02*
X8267Y137824D01*
X3937Y142549D02*
X6102Y144911D01*
X8267Y142549D01*
X9566Y144911D02*
X9566Y137824D01*
X9566Y140187D02*
X12814Y143730D01*
X11190Y141958D02*
X13897Y137824D01*
X15196Y144911D02*
X15196Y139005D01*
X16279Y137824D01*
X19527Y137824D01*
X15196Y141958D02*
X17362Y141958D01*
X20826Y141958D02*
X20826Y139005D01*
X21909Y137824D01*
X24074Y137824D01*
X25157Y139005D01*
X25157Y141958D02*
X25157Y137824D01*
X30787Y138415D02*
X29704Y137824D01*
X27539Y137824D01*
X26456Y139005D01*
X26456Y140777D01*
X27539Y141958D01*
X29704Y141958D01*
X30787Y141368D01*
X30787Y140777D01*
X29704Y140187D01*
X26456Y140187D01*
X32086Y137824D02*
X36417Y137824D01*
X33169Y144911D02*
X34251Y144911D01*
X34251Y137824D01*
X37716Y137824D02*
X42047Y137824D01*
X38799Y144911D02*
X39881Y144911D01*
X39881Y137824D01*
X47677Y138415D02*
X46594Y137824D01*
X44429Y137824D01*
X43346Y139005D01*
X43346Y140777D01*
X44429Y141958D01*
X46594Y141958D01*
X47677Y141368D01*
X47677Y140777D01*
X46594Y140187D01*
X43346Y140187D01*
X48976Y137824D02*
X52765Y137824D01*
X53307Y139005D01*
X52765Y140187D01*
X49517Y140187D01*
X48976Y141368D01*
X49517Y141958D01*
X53307Y141958D01*
X54606Y144911D02*
X54606Y137824D01*
X54606Y141368D02*
X57312Y141368D01*
X58395Y141958D01*
X58937Y143139D01*
X58395Y144320D01*
X57312Y144911D01*
X54606Y144911D01*
X60236Y141958D02*
X60236Y137824D01*
X60236Y140187D02*
X61860Y141958D01*
X64566Y141958D01*
X65866Y140777D02*
X65866Y139005D01*
X65866Y140777D02*
X66948Y141958D01*
X69114Y141958D01*
X70196Y140777D01*
X70196Y139005D01*
X69114Y137824D01*
X66948Y137824D01*
X65866Y139005D01*
X71496Y135462D02*
X74744Y135462D01*
X75826Y136643D01*
X75826Y141958D01*
X74202Y141958D01*
X75826Y144911D02*
X75826Y144320D01*
X81456Y138415D02*
X80374Y137824D01*
X78208Y137824D01*
X77125Y139005D01*
X77125Y140777D01*
X78208Y141958D01*
X80374Y141958D01*
X81456Y141368D01*
X81456Y140777D01*
X80374Y140187D01*
X77125Y140187D01*
X82755Y144911D02*
X82755Y137824D01*
X82755Y140187D02*
X86003Y143730D01*
X84379Y141958D02*
X87086Y137824D01*
X88385Y144911D02*
X88385Y139005D01*
X89468Y137824D01*
X92716Y137824D01*
X88385Y141958D02*
X90551Y141958D01*
X99645Y141958D02*
X101811Y137824D01*
X103976Y141958D01*
X105275Y140777D02*
X105275Y139005D01*
X105275Y140777D02*
X106358Y141958D01*
X108523Y141958D01*
X109606Y140777D01*
X109606Y139005D01*
X108523Y137824D01*
X106358Y137824D01*
X105275Y139005D01*
X110905Y137824D02*
X110905Y141958D01*
X110905Y140777D02*
X111988Y141958D01*
X114153Y141958D01*
X115236Y140777D01*
X115236Y137824D01*
X122165Y144911D02*
X126496Y144911D01*
X124330Y144911D02*
X124330Y137824D01*
X127795Y137824D02*
X127795Y142549D01*
X127795Y140187D02*
X132125Y140187D01*
X132125Y142549D02*
X132125Y137824D01*
X127795Y142549D02*
X129960Y144911D01*
X132125Y142549D01*
X133425Y144911D02*
X133425Y137824D01*
X133425Y141368D02*
X136131Y141368D01*
X137214Y141958D01*
X137755Y143139D01*
X137214Y144320D01*
X136131Y144911D01*
X133425Y144911D01*
X135590Y141368D02*
X137755Y137824D01*
X140679Y144911D02*
X139596Y144320D01*
X139055Y143139D01*
X139055Y139596D01*
X139596Y138415D01*
X140679Y137824D01*
X141761Y137824D01*
X142844Y138415D01*
X143385Y139596D01*
X143385Y141368D01*
X142303Y141368D01*
X140679Y144911D02*
X141761Y144911D01*
X142844Y144320D01*
X144685Y144911D02*
X144685Y137824D01*
X149015Y137824D01*
X144685Y141368D02*
X146850Y141368D01*
X144685Y144911D02*
X149015Y144911D01*
X150314Y144911D02*
X154645Y144911D01*
X152480Y144911D02*
X152480Y137824D01*
X161574Y137824D02*
X161574Y144911D01*
X165905Y137824D01*
X165905Y144911D01*
X169911Y137824D02*
X170994Y138415D01*
X171535Y139596D01*
X169911Y137824D02*
X168828Y137824D01*
X167746Y138415D01*
X167204Y139596D01*
X167204Y143139D01*
X167746Y144320D01*
X168828Y144911D01*
X169911Y144911D01*
X170994Y144320D01*
X171535Y143139D01*
X172834Y141368D02*
X177165Y141368D01*
X178464Y144911D02*
X180629Y137824D01*
X182795Y144911D01*
X188425Y138415D02*
X187342Y137824D01*
X185177Y137824D01*
X184094Y139005D01*
X184094Y140777D01*
X185177Y141958D01*
X187342Y141958D01*
X188425Y141368D01*
X188425Y140777D01*
X187342Y140187D01*
X184094Y140187D01*
X189724Y141958D02*
X189724Y137824D01*
X189724Y140187D02*
X191348Y141958D01*
X194055Y141958D01*
X195354Y137824D02*
X199143Y137824D01*
X199685Y139005D01*
X199143Y140187D01*
X195895Y140187D01*
X195354Y141368D01*
X195895Y141958D01*
X199685Y141958D01*
X200984Y137824D02*
X205314Y137824D01*
X203149Y137824D02*
X203149Y141958D01*
X203149Y144911D02*
X203149Y144320D01*
X201525Y141958D02*
X203149Y141958D01*
X206614Y140777D02*
X206614Y139005D01*
X206614Y140777D02*
X207696Y141958D01*
X209862Y141958D01*
X210944Y140777D01*
X210944Y139005D01*
X209862Y137824D01*
X207696Y137824D01*
X206614Y139005D01*
X212244Y137824D02*
X212244Y141958D01*
X212244Y140777D02*
X213326Y141958D01*
X215492Y141958D01*
X216574Y140777D01*
X216574Y137824D01*
X218956Y138415D02*
X218956Y137824D01*
X219498Y137824D01*
X219498Y138415D01*
X218956Y138415D01*
X219498Y141368D02*
X218956Y141368D01*
X218956Y140777D01*
X219498Y140777D01*
X219498Y141368D01*
X229133Y144911D02*
X229133Y137824D01*
X229133Y140187D02*
X233464Y144911D01*
X230757Y141958D02*
X233464Y137824D01*
X234763Y140777D02*
X234763Y139005D01*
X234763Y140777D02*
X235846Y141958D01*
X238011Y141958D01*
X239094Y140777D01*
X239094Y139005D01*
X238011Y137824D01*
X235846Y137824D01*
X234763Y139005D01*
X244724Y137824D02*
X244724Y140777D01*
X243641Y141958D01*
X242559Y137824D02*
X242559Y140777D01*
X240393Y141958D02*
X243641Y141958D01*
X240393Y137824D02*
X240393Y141958D01*
X242559Y140777D02*
X241476Y141958D01*
X250354Y137824D02*
X250354Y140777D01*
X249271Y141958D01*
X248188Y137824D02*
X248188Y140777D01*
X246023Y141958D02*
X249271Y141958D01*
X246023Y137824D02*
X246023Y141958D01*
X248188Y140777D02*
X247106Y141958D01*
X255984Y138415D02*
X254901Y137824D01*
X252736Y137824D01*
X251653Y139005D01*
X251653Y140777D01*
X252736Y141958D01*
X254901Y141958D01*
X255984Y141368D01*
X255984Y140777D01*
X254901Y140187D01*
X251653Y140187D01*
X257283Y141958D02*
X257283Y137824D01*
X257283Y140187D02*
X258907Y141958D01*
X261614Y141958D01*
X262913Y141958D02*
X267244Y141958D01*
X262913Y137824D01*
X267244Y137824D01*
X268543Y137824D02*
X272874Y137824D01*
X270708Y137824D02*
X270708Y141958D01*
X270708Y144911D02*
X270708Y144320D01*
X269084Y141958D02*
X270708Y141958D01*
X278503Y138415D02*
X277421Y137824D01*
X275255Y137824D01*
X274173Y139005D01*
X274173Y140777D01*
X275255Y141958D01*
X277421Y141958D01*
X278503Y141368D01*
X278503Y140777D01*
X277421Y140187D01*
X274173Y140187D01*
X279803Y137824D02*
X284133Y137824D01*
X280885Y144911D02*
X281968Y144911D01*
X281968Y137824D01*
X285433Y137824D02*
X289763Y137824D01*
X286515Y144911D02*
X287598Y144911D01*
X287598Y137824D01*
X295393Y138415D02*
X294311Y137824D01*
X292145Y137824D01*
X291062Y139005D01*
X291062Y140777D01*
X292145Y141958D01*
X294311Y141958D01*
X295393Y141368D01*
X295393Y140777D01*
X294311Y140187D01*
X291062Y140187D01*
X302322Y137824D02*
X302322Y144911D01*
X306653Y137824D01*
X306653Y144911D01*
X307952Y141958D02*
X307952Y139005D01*
X309035Y137824D01*
X311200Y137824D01*
X312283Y139005D01*
X312283Y141958D02*
X312283Y137824D01*
X313582Y144911D02*
X313582Y139005D01*
X314665Y137824D01*
X317913Y137824D01*
X313582Y141958D02*
X315748Y141958D01*
X319212Y141958D02*
X323543Y141958D01*
X319212Y137824D01*
X323543Y137824D01*
X324842Y141958D02*
X324842Y139005D01*
X325925Y137824D01*
X328090Y137824D01*
X329173Y139005D01*
X329173Y141958D02*
X329173Y137824D01*
X330472Y137824D02*
X330472Y141958D01*
X330472Y140777D02*
X331555Y141958D01*
X333720Y141958D01*
X334803Y140777D01*
X334803Y137824D01*
X340433Y139005D02*
X339350Y137824D01*
X337185Y137824D01*
X336102Y139005D01*
X336102Y140777D01*
X337185Y141958D01*
X339350Y141958D01*
X340433Y140777D01*
X340433Y136643D01*
X339350Y135462D01*
X336102Y135462D01*
X347362Y137824D02*
X351692Y137824D01*
X349527Y137824D02*
X349527Y141958D01*
X349527Y144911D02*
X349527Y144320D01*
X347903Y141958D02*
X349527Y141958D01*
X352992Y137824D02*
X356781Y137824D01*
X357322Y139005D01*
X356781Y140187D01*
X353533Y140187D01*
X352992Y141368D01*
X353533Y141958D01*
X357322Y141958D01*
X358622Y144911D02*
X358622Y139005D01*
X359704Y137824D01*
X362952Y137824D01*
X358622Y141958D02*
X360787Y141958D01*
X369881Y137824D02*
X373671Y137824D01*
X374212Y139005D01*
X373671Y140187D01*
X370423Y140187D01*
X369881Y141368D01*
X370423Y141958D01*
X374212Y141958D01*
X375511Y144911D02*
X375511Y139005D01*
X376594Y137824D01*
X379842Y137824D01*
X375511Y141958D02*
X377677Y141958D01*
X381141Y141958D02*
X381141Y137824D01*
X381141Y140187D02*
X382765Y141958D01*
X385472Y141958D01*
X386771Y139005D02*
X387854Y137824D01*
X390019Y137824D01*
X391102Y139005D01*
X386771Y139005D02*
X386771Y140777D01*
X387854Y141958D01*
X390019Y141958D01*
X391102Y140777D01*
X391102Y137824D01*
X392401Y135462D02*
X392401Y143730D01*
X393484Y144911D01*
X396732Y144911D01*
X392401Y140187D02*
X394566Y140187D01*
X398031Y144911D02*
X398031Y137824D01*
X401279Y137824D01*
X402362Y139005D01*
X402362Y140777D01*
X401279Y141958D01*
X398031Y141958D01*
X403661Y139005D02*
X404744Y137824D01*
X406909Y137824D01*
X407992Y139005D01*
X403661Y139005D02*
X403661Y140777D01*
X404744Y141958D01*
X406909Y141958D01*
X407992Y140777D01*
X407992Y137824D01*
X409291Y141958D02*
X409291Y137824D01*
X409291Y140187D02*
X410915Y141958D01*
X413622Y141958D01*
X417086Y137824D02*
X417086Y138415D01*
X417627Y138415D01*
X417627Y137824D01*
X417086Y137824D01*
X417086Y140187D02*
X417627Y140187D01*
X418169Y143730D01*
X417627Y144911D01*
X417086Y144911D01*
X416545Y143730D01*
X417086Y140187D01*
X3937Y137824D02*
X3937Y142549D01*
X3937Y140187D02*
X8267Y140187D01*
X8267Y142549D02*
X8267Y137824D01*
X3937Y142549D02*
X6102Y144911D01*
X8267Y142549D01*
X9566Y144911D02*
X9566Y137824D01*
X9566Y140187D02*
X12814Y143730D01*
X11190Y141958D02*
X13897Y137824D01*
X15196Y144911D02*
X15196Y139005D01*
X16279Y137824D01*
X19527Y137824D01*
X15196Y141958D02*
X17362Y141958D01*
X20826Y141958D02*
X20826Y139005D01*
X21909Y137824D01*
X24074Y137824D01*
X25157Y139005D01*
X25157Y141958D02*
X25157Y137824D01*
X30787Y138415D02*
X29704Y137824D01*
X27539Y137824D01*
X26456Y139005D01*
X26456Y140777D01*
X27539Y141958D01*
X29704Y141958D01*
X30787Y141368D01*
X30787Y140777D01*
X29704Y140187D01*
X26456Y140187D01*
X32086Y137824D02*
X36417Y137824D01*
X33169Y144911D02*
X34251Y144911D01*
X34251Y137824D01*
X37716Y137824D02*
X42047Y137824D01*
X38799Y144911D02*
X39881Y144911D01*
X39881Y137824D01*
X47677Y138415D02*
X46594Y137824D01*
X44429Y137824D01*
X43346Y139005D01*
X43346Y140777D01*
X44429Y141958D01*
X46594Y141958D01*
X47677Y141368D01*
X47677Y140777D01*
X46594Y140187D01*
X43346Y140187D01*
X48976Y137824D02*
X52765Y137824D01*
X53307Y139005D01*
X52765Y140187D01*
X49517Y140187D01*
X48976Y141368D01*
X49517Y141958D01*
X53307Y141958D01*
X54606Y144911D02*
X54606Y137824D01*
X54606Y141368D02*
X57312Y141368D01*
X58395Y141958D01*
X58937Y143139D01*
X58395Y144320D01*
X57312Y144911D01*
X54606Y144911D01*
X60236Y141958D02*
X60236Y137824D01*
X60236Y140187D02*
X61860Y141958D01*
X64566Y141958D01*
X65866Y140777D02*
X65866Y139005D01*
X65866Y140777D02*
X66948Y141958D01*
X69114Y141958D01*
X70196Y140777D01*
X70196Y139005D01*
X69114Y137824D01*
X66948Y137824D01*
X65866Y139005D01*
X71496Y135462D02*
X74744Y135462D01*
X75826Y136643D01*
X75826Y141958D01*
X74202Y141958D01*
X75826Y144911D02*
X75826Y144320D01*
X81456Y138415D02*
X80374Y137824D01*
X78208Y137824D01*
X77125Y139005D01*
X77125Y140777D01*
X78208Y141958D01*
X80374Y141958D01*
X81456Y141368D01*
X81456Y140777D01*
X80374Y140187D01*
X77125Y140187D01*
X82755Y144911D02*
X82755Y137824D01*
X82755Y140187D02*
X86003Y143730D01*
X84379Y141958D02*
X87086Y137824D01*
X88385Y144911D02*
X88385Y139005D01*
X89468Y137824D01*
X92716Y137824D01*
X88385Y141958D02*
X90551Y141958D01*
X99645Y141958D02*
X101811Y137824D01*
X103976Y141958D01*
X105275Y140777D02*
X105275Y139005D01*
X105275Y140777D02*
X106358Y141958D01*
X108523Y141958D01*
X109606Y140777D01*
X109606Y139005D01*
X108523Y137824D01*
X106358Y137824D01*
X105275Y139005D01*
X110905Y137824D02*
X110905Y141958D01*
X110905Y140777D02*
X111988Y141958D01*
X114153Y141958D01*
X115236Y140777D01*
X115236Y137824D01*
X122165Y144911D02*
X126496Y144911D01*
X124330Y144911D02*
X124330Y137824D01*
X127795Y137824D02*
X127795Y142549D01*
X127795Y140187D02*
X132125Y140187D01*
X132125Y142549D02*
X132125Y137824D01*
X127795Y142549D02*
X129960Y144911D01*
X132125Y142549D01*
X133425Y144911D02*
X133425Y137824D01*
X133425Y141368D02*
X136131Y141368D01*
X137214Y141958D01*
X137755Y143139D01*
X137214Y144320D01*
X136131Y144911D01*
X133425Y144911D01*
X135590Y141368D02*
X137755Y137824D01*
X140679Y144911D02*
X139596Y144320D01*
X139055Y143139D01*
X139055Y139596D01*
X139596Y138415D01*
X140679Y137824D01*
X141761Y137824D01*
X142844Y138415D01*
X143385Y139596D01*
X143385Y141368D01*
X142303Y141368D01*
X140679Y144911D02*
X141761Y144911D01*
X142844Y144320D01*
X144685Y144911D02*
X144685Y137824D01*
X149015Y137824D01*
X144685Y141368D02*
X146850Y141368D01*
X144685Y144911D02*
X149015Y144911D01*
X150314Y144911D02*
X154645Y144911D01*
X152480Y144911D02*
X152480Y137824D01*
X161574Y137824D02*
X161574Y144911D01*
X165905Y137824D01*
X165905Y144911D01*
X169911Y137824D02*
X170994Y138415D01*
X171535Y139596D01*
X169911Y137824D02*
X168828Y137824D01*
X167746Y138415D01*
X167204Y139596D01*
X167204Y143139D01*
X167746Y144320D01*
X168828Y144911D01*
X169911Y144911D01*
X170994Y144320D01*
X171535Y143139D01*
X172834Y141368D02*
X177165Y141368D01*
X178464Y144911D02*
X180629Y137824D01*
X182795Y144911D01*
X188425Y138415D02*
X187342Y137824D01*
X185177Y137824D01*
X184094Y139005D01*
X184094Y140777D01*
X185177Y141958D01*
X187342Y141958D01*
X188425Y141368D01*
X188425Y140777D01*
X187342Y140187D01*
X184094Y140187D01*
X189724Y141958D02*
X189724Y137824D01*
X189724Y140187D02*
X191348Y141958D01*
X194055Y141958D01*
X195354Y137824D02*
X199143Y137824D01*
X199685Y139005D01*
X199143Y140187D01*
X195895Y140187D01*
X195354Y141368D01*
X195895Y141958D01*
X199685Y141958D01*
X200984Y137824D02*
X205314Y137824D01*
X203149Y137824D02*
X203149Y141958D01*
X203149Y144911D02*
X203149Y144320D01*
X201525Y141958D02*
X203149Y141958D01*
X206614Y140777D02*
X206614Y139005D01*
X206614Y140777D02*
X207696Y141958D01*
X209862Y141958D01*
X210944Y140777D01*
X210944Y139005D01*
X209862Y137824D01*
X207696Y137824D01*
X206614Y139005D01*
X212244Y137824D02*
X212244Y141958D01*
X212244Y140777D02*
X213326Y141958D01*
X215492Y141958D01*
X216574Y140777D01*
X216574Y137824D01*
X218956Y138415D02*
X218956Y137824D01*
X219498Y137824D01*
X219498Y138415D01*
X218956Y138415D01*
X219498Y141368D02*
X218956Y141368D01*
X218956Y140777D01*
X219498Y140777D01*
X219498Y141368D01*
X229133Y144911D02*
X229133Y137824D01*
X229133Y140187D02*
X233464Y144911D01*
X230757Y141958D02*
X233464Y137824D01*
X234763Y140777D02*
X234763Y139005D01*
X234763Y140777D02*
X235846Y141958D01*
X238011Y141958D01*
X239094Y140777D01*
X239094Y139005D01*
X238011Y137824D01*
X235846Y137824D01*
X234763Y139005D01*
X244724Y137824D02*
X244724Y140777D01*
X243641Y141958D01*
X242559Y137824D02*
X242559Y140777D01*
X240393Y141958D02*
X243641Y141958D01*
X240393Y137824D02*
X240393Y141958D01*
X242559Y140777D02*
X241476Y141958D01*
X250354Y137824D02*
X250354Y140777D01*
X249271Y141958D01*
X248188Y137824D02*
X248188Y140777D01*
X246023Y141958D02*
X249271Y141958D01*
X246023Y137824D02*
X246023Y141958D01*
X248188Y140777D02*
X247106Y141958D01*
X255984Y138415D02*
X254901Y137824D01*
X252736Y137824D01*
X251653Y139005D01*
X251653Y140777D01*
X252736Y141958D01*
X254901Y141958D01*
X255984Y141368D01*
X255984Y140777D01*
X254901Y140187D01*
X251653Y140187D01*
X257283Y141958D02*
X257283Y137824D01*
X257283Y140187D02*
X258907Y141958D01*
X261614Y141958D01*
X262913Y141958D02*
X267244Y141958D01*
X262913Y137824D01*
X267244Y137824D01*
X268543Y137824D02*
X272874Y137824D01*
X270708Y137824D02*
X270708Y141958D01*
X270708Y144911D02*
X270708Y144320D01*
X269084Y141958D02*
X270708Y141958D01*
X278503Y138415D02*
X277421Y137824D01*
X275255Y137824D01*
X274173Y139005D01*
X274173Y140777D01*
X275255Y141958D01*
X277421Y141958D01*
X278503Y141368D01*
X278503Y140777D01*
X277421Y140187D01*
X274173Y140187D01*
X279803Y137824D02*
X284133Y137824D01*
X280885Y144911D02*
X281968Y144911D01*
X281968Y137824D01*
X285433Y137824D02*
X289763Y137824D01*
X286515Y144911D02*
X287598Y144911D01*
X287598Y137824D01*
X295393Y138415D02*
X294311Y137824D01*
X292145Y137824D01*
X291062Y139005D01*
X291062Y140777D01*
X292145Y141958D01*
X294311Y141958D01*
X295393Y141368D01*
X295393Y140777D01*
X294311Y140187D01*
X291062Y140187D01*
X302322Y137824D02*
X302322Y144911D01*
X306653Y137824D01*
X306653Y144911D01*
X307952Y141958D02*
X307952Y139005D01*
X309035Y137824D01*
X311200Y137824D01*
X312283Y139005D01*
X312283Y141958D02*
X312283Y137824D01*
X313582Y144911D02*
X313582Y139005D01*
X314665Y137824D01*
X317913Y137824D01*
X313582Y141958D02*
X315748Y141958D01*
X319212Y141958D02*
X323543Y141958D01*
X319212Y137824D01*
X323543Y137824D01*
X324842Y141958D02*
X324842Y139005D01*
X325925Y137824D01*
X328090Y137824D01*
X329173Y139005D01*
X329173Y141958D02*
X329173Y137824D01*
X330472Y137824D02*
X330472Y141958D01*
X330472Y140777D02*
X331555Y141958D01*
X333720Y141958D01*
X334803Y140777D01*
X334803Y137824D01*
X340433Y139005D02*
X339350Y137824D01*
X337185Y137824D01*
X336102Y139005D01*
X336102Y140777D01*
X337185Y141958D01*
X339350Y141958D01*
X340433Y140777D01*
X340433Y136643D01*
X339350Y135462D01*
X336102Y135462D01*
X347362Y137824D02*
X351692Y137824D01*
X349527Y137824D02*
X349527Y141958D01*
X349527Y144911D02*
X349527Y144320D01*
X347903Y141958D02*
X349527Y141958D01*
X352992Y137824D02*
X356781Y137824D01*
X357322Y139005D01*
X356781Y140187D01*
X353533Y140187D01*
X352992Y141368D01*
X353533Y141958D01*
X357322Y141958D01*
X358622Y144911D02*
X358622Y139005D01*
X359704Y137824D01*
X362952Y137824D01*
X358622Y141958D02*
X360787Y141958D01*
X369881Y137824D02*
X373671Y137824D01*
X374212Y139005D01*
X373671Y140187D01*
X370423Y140187D01*
X369881Y141368D01*
X370423Y141958D01*
X374212Y141958D01*
X375511Y144911D02*
X375511Y139005D01*
X376594Y137824D01*
X379842Y137824D01*
X375511Y141958D02*
X377677Y141958D01*
X381141Y141958D02*
X381141Y137824D01*
X381141Y140187D02*
X382765Y141958D01*
X385472Y141958D01*
X386771Y139005D02*
X387854Y137824D01*
X390019Y137824D01*
X391102Y139005D01*
X386771Y139005D02*
X386771Y140777D01*
X387854Y141958D01*
X390019Y141958D01*
X391102Y140777D01*
X391102Y137824D01*
X392401Y135462D02*
X392401Y143730D01*
X393484Y144911D01*
X396732Y144911D01*
X392401Y140187D02*
X394566Y140187D01*
X398031Y144911D02*
X398031Y137824D01*
X401279Y137824D01*
X402362Y139005D01*
X402362Y140777D01*
X401279Y141958D01*
X398031Y141958D01*
X403661Y139005D02*
X404744Y137824D01*
X406909Y137824D01*
X407992Y139005D01*
X403661Y139005D02*
X403661Y140777D01*
X404744Y141958D01*
X406909Y141958D01*
X407992Y140777D01*
X407992Y137824D01*
X409291Y141958D02*
X409291Y137824D01*
X409291Y140187D02*
X410915Y141958D01*
X413622Y141958D01*
X417086Y137824D02*
X417086Y138415D01*
X417627Y138415D01*
X417627Y137824D01*
X417086Y137824D01*
X417086Y140187D02*
X417627Y140187D01*
X418169Y143730D01*
X417627Y144911D01*
X417086Y144911D01*
X416545Y143730D01*
X417086Y140187D01*
G54D15*
X63196Y56114D02*
X63196Y59015D01*
X64648Y49662D02*
X64960Y49350D01*
X66835Y54350D02*
X66835Y53412D01*
X121835Y86225D02*
X121835Y73725D01*
X119648Y71537D01*
X119648Y66537D01*
X121835Y64350D01*
X94648Y59015D02*
X94692Y59015D01*
X120273Y82162D02*
X119023Y83412D01*
X120273Y82162D02*
X120273Y74975D01*
X118085Y72787D01*
X118085Y64037D01*
X92723Y49350D02*
X92773Y49350D01*
X118710Y79350D02*
X118710Y75600D01*
X118710Y79350D02*
X118085Y79975D01*
X116210Y73100D02*
X118710Y75600D01*
X116210Y64350D02*
X116210Y73100D01*
X116210Y64350D02*
X114960Y63100D01*
X114335Y74350D02*
X116523Y76537D01*
X114335Y65600D02*
X114335Y74350D01*
X114335Y65600D02*
X111523Y62787D01*
X88786Y59015D02*
X88786Y55836D01*
X113710Y79975D02*
X113085Y80600D01*
X112460Y72787D02*
X111835Y72162D01*
X111835Y66537D01*
X113710Y75912D02*
X113710Y79975D01*
X112460Y74662D02*
X113710Y75912D01*
X112460Y74662D02*
X112460Y72787D01*
X108398Y71537D02*
X108398Y65912D01*
X108398Y71537D02*
X110273Y73412D01*
X110273Y75912D01*
X111523Y77162D01*
X101835Y77162D02*
X96523Y71850D01*
X96523Y68100D01*
X98710Y65912D01*
X104335Y65912D01*
X104960Y65287D01*
X101835Y77162D02*
X108085Y77162D01*
X63085Y36850D02*
X63196Y35912D01*
X65164Y42162D02*
X64648Y42162D01*
X69101Y35912D02*
X69023Y36850D01*
X73085Y36850D02*
X73038Y35912D01*
X77148Y36850D02*
X76975Y35912D01*
X96660Y32613D02*
X96660Y29685D01*
X79648Y41537D02*
X79023Y42162D01*
X49960Y50287D02*
X49335Y49662D01*
X47448Y59015D02*
X47448Y61862D01*
X47448Y29685D02*
X46835Y30297D01*
X46835Y35912D01*
X42460Y32475D02*
X42460Y65912D01*
X92460Y65912D01*
X42460Y32475D02*
X32000Y32475D01*
X32000Y38100D01*
X98629Y59015D02*
X98629Y64037D01*
X94335Y64037D01*
X92460Y65912D01*
X67133Y46225D02*
X67133Y29685D01*
X57290Y46225D02*
X57290Y29685D01*
X80912Y46225D02*
X80912Y59015D01*
X90755Y46395D02*
X90585Y46225D01*
X90755Y29685D02*
X90755Y46395D01*
X49416Y41537D02*
X49416Y41306D01*
X80912Y64037D02*
X80912Y59015D01*
X80912Y64037D02*
X90755Y64037D01*
X90755Y59015D01*
X57290Y50118D02*
X57290Y46225D01*
X57290Y50118D02*
X58398Y51225D01*
X49416Y37869D02*
X49416Y41306D01*
G54D16*
X280155Y77475D02*
X280155Y82357D01*
X285273Y87475D01*
X285273Y107475D01*
X285273Y122475D01*
X270155Y92475D02*
X270155Y102357D01*
X275273Y107475D01*
X275273Y122475D01*
X260155Y77475D02*
X260155Y82357D01*
X265273Y87475D01*
X265273Y107475D01*
X265273Y122475D01*
X250155Y92475D02*
X250155Y102357D01*
X255273Y107475D01*
X255273Y122475D01*
X240155Y77475D02*
X240155Y82357D01*
X245273Y87475D01*
X245273Y107475D01*
X245273Y122475D01*
X230155Y92475D02*
X230155Y102357D01*
X235273Y107475D01*
X235273Y122475D01*
X220155Y77475D02*
X220155Y82357D01*
X225273Y87475D01*
X225273Y107475D01*
X225273Y122475D01*
X210155Y92475D02*
X210155Y102357D01*
X215273Y107475D01*
X215273Y122475D01*
X290391Y73735D02*
X286631Y69975D01*
X285273Y69975D01*
X20273Y86537D02*
X20273Y106225D01*
X24960Y81850D02*
X24960Y69350D01*
X24960Y81850D02*
X20273Y86537D01*
X24960Y69350D02*
X29023Y65287D01*
X59960Y49662D02*
X60273Y49350D01*
X39335Y63412D02*
X39960Y63412D01*
X39335Y63412D02*
X37460Y65287D01*
X29023Y65287D01*
X280391Y88735D02*
X275273Y83617D01*
X275273Y69975D01*
X16835Y86850D02*
X16835Y103100D01*
X22460Y81225D02*
X16835Y86850D01*
X22460Y68725D02*
X22460Y81225D01*
X29335Y61850D02*
X22460Y68725D01*
X29335Y61850D02*
X35585Y61850D01*
X270391Y73735D02*
X266631Y69975D01*
X265273Y69975D01*
X13398Y87475D02*
X13398Y99975D01*
X19960Y80912D02*
X13398Y87475D01*
X19960Y68100D02*
X19960Y80912D01*
X29023Y59037D02*
X19960Y68100D01*
X29023Y59037D02*
X39960Y59037D01*
X260391Y88735D02*
X255273Y83617D01*
X255273Y69975D01*
X9960Y88100D02*
X9960Y96850D01*
X17460Y80600D02*
X9960Y88100D01*
X17460Y67475D02*
X17460Y80600D01*
X17460Y67475D02*
X28710Y56225D01*
X36523Y56225D01*
X250391Y73735D02*
X246631Y69975D01*
X245273Y69975D01*
X51385Y35912D02*
X51210Y35912D01*
X240391Y88735D02*
X235273Y83617D01*
X235273Y69975D01*
X53353Y38725D02*
X53398Y38725D01*
X230391Y73735D02*
X226631Y69975D01*
X225273Y69975D01*
X55322Y35912D02*
X55273Y35912D01*
X220391Y88735D02*
X215273Y83617D01*
X215273Y69975D01*
X59335Y36850D02*
X59259Y36225D01*
X35391Y88735D02*
X30273Y83617D01*
X30273Y69975D01*
X45391Y73735D02*
X41631Y69975D01*
X40273Y69975D01*
X55391Y88735D02*
X50273Y83617D01*
X50273Y69975D01*
X65391Y73735D02*
X61631Y69975D01*
X60273Y69975D01*
X69023Y49350D02*
X69101Y49741D01*
X75391Y88735D02*
X70273Y83617D01*
X70273Y69975D01*
X71210Y53412D02*
X71070Y53553D01*
X85391Y73735D02*
X81631Y69975D01*
X80273Y69975D01*
X73085Y49350D02*
X73038Y50022D01*
X95391Y88735D02*
X90273Y83617D01*
X90273Y69975D01*
X74960Y53412D02*
X75007Y53678D01*
X105391Y73735D02*
X101631Y69975D01*
X100273Y69975D01*
X77148Y49350D02*
X76975Y49835D01*
X25155Y92475D02*
X25155Y102357D01*
X30273Y107475D01*
X30273Y122475D01*
X35155Y77475D02*
X35155Y82357D01*
X40273Y87475D01*
X40273Y107475D01*
X40273Y122475D01*
X45155Y92475D02*
X45155Y102357D01*
X50273Y107475D01*
X50273Y122475D01*
X55155Y77475D02*
X55155Y82357D01*
X60273Y87475D01*
X60273Y107475D01*
X60273Y122475D01*
X65155Y92475D02*
X65155Y102357D01*
X70273Y107475D01*
X70273Y122475D01*
X75155Y77475D02*
X75155Y82357D01*
X80273Y87475D01*
X80273Y107475D01*
X80273Y122475D01*
X85155Y92475D02*
X85155Y102357D01*
X90273Y107475D01*
X90273Y122475D01*
X95155Y77475D02*
X95155Y82357D01*
X100273Y87475D01*
X100273Y107475D01*
X100273Y122475D01*
X123710Y84242D02*
X128203Y88735D01*
X79023Y53412D02*
X78944Y53491D01*
X123710Y70600D02*
X123710Y84242D01*
X123710Y70600D02*
X123085Y69975D01*
X198203Y73735D02*
X194443Y69975D01*
X193085Y69975D01*
X96660Y49350D02*
X96835Y49350D01*
X121835Y86225D02*
X121210Y86850D01*
X188203Y88735D02*
X183085Y83617D01*
X183085Y69975D01*
X118085Y64037D02*
X118398Y63725D01*
X178203Y73735D02*
X174443Y69975D01*
X173085Y69975D01*
X168203Y88735D02*
X163085Y83617D01*
X163085Y69975D01*
X111523Y62787D02*
X111523Y62475D01*
X158203Y73735D02*
X154443Y69975D01*
X153085Y69975D01*
X148203Y88735D02*
X143085Y83617D01*
X143085Y69975D01*
X84849Y53211D02*
X84960Y53100D01*
X138203Y73735D02*
X134443Y69975D01*
X133085Y69975D01*
X82881Y49458D02*
X83085Y49350D01*
X117967Y92475D02*
X117967Y102357D01*
X123085Y107475D01*
X123085Y122475D01*
X127967Y77475D02*
X127967Y82357D01*
X133085Y87475D01*
X133085Y107475D01*
X133085Y122475D01*
X137967Y92475D02*
X137967Y102357D01*
X143085Y107475D01*
X143085Y122475D01*
X147967Y77475D02*
X147967Y82357D01*
X153085Y87475D01*
X153085Y107475D01*
X153085Y122475D01*
X157967Y92475D02*
X157967Y102357D01*
X163085Y107475D01*
X163085Y122475D01*
X167967Y77475D02*
X167967Y82357D01*
X173085Y87475D01*
X173085Y107475D01*
X173085Y122475D01*
X177967Y92475D02*
X177967Y102357D01*
X183085Y107475D01*
X183085Y122475D01*
X187967Y77475D02*
X187967Y82357D01*
X193085Y87475D01*
X193085Y107475D01*
X193085Y122475D01*
X217655Y56215D02*
X221414Y59975D01*
X222773Y59975D01*
X60898Y42162D02*
X61227Y42162D01*
X122460Y39037D02*
X122460Y32162D01*
X114960Y24662D01*
X114960Y20912D01*
X227655Y41215D02*
X232773Y46333D01*
X232773Y59975D01*
X119023Y31537D02*
X119023Y37162D01*
X119023Y31537D02*
X111523Y24037D01*
X111523Y20912D01*
X237655Y56215D02*
X241414Y59975D01*
X242773Y59975D01*
X115585Y30912D02*
X115585Y35287D01*
X115585Y30912D02*
X108085Y23412D01*
X108085Y20912D01*
X247655Y41215D02*
X252773Y46333D01*
X252773Y59975D01*
X112148Y30287D02*
X112148Y33412D01*
X112148Y30287D02*
X105585Y23725D01*
X105273Y23725D01*
X257655Y56215D02*
X261414Y59975D01*
X262773Y59975D01*
X71210Y42162D02*
X71070Y42475D01*
X108710Y29975D02*
X108710Y31537D01*
X108710Y29975D02*
X105898Y27162D01*
X105273Y27162D01*
X267655Y41215D02*
X272773Y46333D01*
X272773Y59975D01*
X277655Y56215D02*
X281414Y59975D01*
X282773Y59975D01*
X74960Y42162D02*
X75007Y42162D01*
X287655Y41215D02*
X292773Y46333D01*
X292773Y59975D01*
X195155Y41215D02*
X200273Y46333D01*
X200273Y59975D01*
X185155Y56215D02*
X188914Y59975D01*
X189960Y59662D01*
X94692Y34394D02*
X94960Y34662D01*
X175155Y41215D02*
X180273Y46333D01*
X180273Y59975D01*
X92723Y36801D02*
X92773Y36850D01*
X165155Y56215D02*
X168914Y59975D01*
X170273Y59975D01*
X88786Y36461D02*
X88710Y36850D01*
X155155Y41215D02*
X160273Y46333D01*
X160273Y59975D01*
X145155Y56215D02*
X148914Y59975D01*
X150273Y59975D01*
X135155Y41215D02*
X140273Y46333D01*
X140273Y59975D01*
X82881Y41958D02*
X83085Y42162D01*
X125155Y56215D02*
X128914Y59975D01*
X130273Y59975D01*
X79023Y42162D02*
X78944Y42475D01*
X227891Y52475D02*
X227891Y47593D01*
X222773Y42475D01*
X222773Y22475D01*
X222773Y7475D01*
X237891Y37475D02*
X237891Y27593D01*
X232773Y22475D01*
X232773Y7475D01*
X247891Y52475D02*
X247891Y47593D01*
X242773Y42475D01*
X242773Y22475D01*
X242773Y7475D01*
X257891Y37475D02*
X257891Y27593D01*
X252773Y22475D01*
X252773Y7475D01*
X267891Y52475D02*
X267891Y47593D01*
X262773Y42475D01*
X262773Y22475D01*
X262773Y7475D01*
X277891Y37475D02*
X277891Y27593D01*
X272773Y22475D01*
X272773Y7475D01*
X287891Y52475D02*
X287891Y47593D01*
X282773Y42475D01*
X282773Y22475D01*
X282773Y7475D01*
X297891Y37475D02*
X297891Y27593D01*
X292773Y22475D01*
X292773Y7475D01*
X135391Y52475D02*
X130273Y47357D01*
X130273Y22475D01*
X130273Y7475D01*
X145391Y37475D02*
X145391Y27593D01*
X140273Y22475D01*
X140273Y7475D01*
X155391Y52475D02*
X150273Y47357D01*
X150273Y22475D01*
X150273Y7475D01*
X165391Y37475D02*
X165391Y27593D01*
X160273Y22475D01*
X160273Y7475D01*
X175391Y52475D02*
X170273Y47357D01*
X170273Y22475D01*
X170273Y7475D01*
X185391Y37475D02*
X185391Y27593D01*
X180273Y22475D01*
X180273Y7475D01*
X195391Y52475D02*
X190273Y47357D01*
X190273Y22475D01*
X190273Y7475D01*
X205391Y37475D02*
X205391Y27593D01*
X200273Y22475D01*
X200273Y7475D01*
X39960Y51225D02*
X39960Y35600D01*
X92773Y8725D02*
X92773Y14975D01*
X47448Y53737D02*
X47460Y53412D01*
X36523Y52475D02*
X36523Y42162D01*
X37148Y41225D01*
X37148Y38412D01*
X52773Y8725D02*
X52773Y14975D01*
X72773Y8725D02*
X72773Y14975D01*
X26375Y32475D02*
X32000Y38100D01*
X10273Y37475D02*
X15273Y32475D01*
X26375Y32475D02*
X15273Y32475D01*
X26687Y27787D02*
X32000Y22475D01*
X102148Y22475D02*
X102773Y23100D01*
X102773Y56840D02*
X100597Y59015D01*
X102773Y56840D02*
X102773Y23100D01*
X26687Y27787D02*
X10585Y27787D01*
X10273Y27475D01*
X32000Y22475D02*
X102148Y22475D01*
X10273Y47475D02*
X5273Y47475D01*
X5273Y32475D01*
X5273Y22475D02*
X19795Y22475D01*
X22473Y12775D02*
X22773Y12775D01*
X24173Y14175D01*
X32773Y14175D01*
X33875Y15277D02*
X32773Y14175D01*
X47773Y14975D02*
X47773Y19975D01*
X67773Y19975D01*
X67773Y14975D01*
X67773Y19975D02*
X87773Y19975D01*
X87773Y14975D01*
X32773Y14975D02*
X47773Y14975D01*
X32773Y14975D02*
X32773Y14175D01*
X80912Y24975D02*
X80912Y29685D01*
X80912Y24975D02*
X100597Y24975D01*
X100597Y29685D01*
X67133Y59015D02*
X67133Y63725D01*
X44335Y63725D02*
X67133Y63725D01*
X44335Y63725D02*
X44335Y29975D01*
X44335Y24975D02*
X80912Y24975D01*
X19795Y38100D02*
X16835Y38100D01*
X10273Y44662D01*
X10273Y47475D01*
X5273Y32475D02*
X12148Y32475D01*
X5273Y32475D02*
X5273Y22475D01*
X12148Y32475D02*
X14648Y29975D01*
X44335Y29975D02*
X14648Y29975D01*
X44335Y29975D02*
X44335Y24975D01*
X22773Y12475D02*
X22773Y12775D01*
X19795Y22475D02*
X19795Y15752D01*
X22773Y12775D01*
X12460Y79662D02*
X10273Y77475D01*
X12460Y64975D02*
X12460Y79662D01*
X12460Y64975D02*
X21385Y56050D01*
X21523Y56050D02*
X24485Y53087D01*
X31210Y53087D01*
X21385Y56050D02*
X21523Y56050D01*
X148203Y96215D02*
X138203Y86215D01*
X138203Y81215D01*
X168203Y96215D02*
X158203Y86215D01*
X158203Y81215D01*
X178203Y86215D02*
X178203Y81215D01*
X178203Y86215D02*
X188203Y96215D01*
X55391Y96215D02*
X45391Y86215D01*
X45391Y81215D01*
X75391Y96215D02*
X65391Y86215D01*
X65391Y81215D01*
X95391Y96215D02*
X85391Y86215D01*
X85391Y81215D01*
X128203Y96215D02*
X128203Y127475D01*
X148203Y127475D01*
X148203Y96215D02*
X148203Y127475D01*
X168085Y127475D01*
X168085Y96215D02*
X168085Y127475D01*
X168085Y96215D02*
X168203Y96215D01*
X168085Y127475D02*
X188203Y127475D01*
X188203Y96215D02*
X188203Y127475D01*
X198203Y127475D01*
X198203Y113100D02*
X198203Y102787D01*
X35391Y96215D02*
X35391Y127475D01*
X55391Y127475D01*
X55391Y96215D02*
X55391Y127475D01*
X75391Y127475D01*
X75391Y96215D02*
X75391Y127475D01*
X95391Y127475D01*
X95391Y96215D02*
X95391Y127475D01*
X105391Y127475D01*
X105391Y113100D02*
X105391Y102475D01*
X220391Y96215D02*
X220391Y127475D01*
X240391Y127475D01*
X240391Y96215D02*
X240391Y127475D01*
X260391Y127475D01*
X260391Y96215D02*
X260391Y127475D01*
X280391Y127475D01*
X280391Y96215D02*
X280391Y127475D01*
X290391Y127475D01*
X230391Y81215D02*
X230391Y86215D01*
X240391Y96215D01*
X250391Y81215D02*
X250391Y86215D01*
X260391Y96215D01*
X270391Y81215D02*
X270391Y86215D01*
X280391Y96215D01*
X290391Y113100D02*
X290391Y102475D01*
X287655Y33735D02*
X287655Y2475D01*
X247655Y2475D02*
X227655Y2475D01*
X267655Y33735D02*
X267655Y2475D01*
X287655Y2475D01*
X247655Y33735D02*
X247655Y2475D01*
X267655Y2475D01*
X227655Y33735D02*
X227655Y2475D01*
X217655Y2475D01*
X217655Y16850D02*
X217655Y27475D01*
X217655Y2475D02*
X205273Y2475D01*
X277655Y48735D02*
X277655Y43735D01*
X267655Y33735D01*
X257655Y48735D02*
X257655Y43735D01*
X247655Y33735D01*
X237655Y48735D02*
X237655Y43735D01*
X227655Y33735D01*
X195155Y33735D02*
X195155Y2475D01*
X175155Y2475D01*
X175155Y33735D02*
X175155Y2475D01*
X155155Y2475D01*
X155155Y33735D02*
X155155Y2475D01*
X135155Y2475D01*
X135155Y33735D02*
X135155Y2475D01*
X125155Y2475D01*
X185155Y48735D02*
X185155Y43735D01*
X175155Y33735D01*
X165155Y48735D02*
X165155Y43735D01*
X155155Y33735D01*
X145155Y48735D02*
X145155Y43735D01*
X135155Y33735D01*
X125155Y42162D02*
X125155Y48735D01*
X125155Y2475D02*
X97773Y2475D01*
X297773Y2475D02*
X302773Y2475D01*
X302773Y28100D02*
X302773Y38725D01*
X302773Y127475D02*
X290391Y127475D01*
X22473Y7475D02*
X22773Y7175D01*
X24173Y5775D01*
X32773Y5775D01*
X19198Y5775D02*
X24173Y5775D01*
X57773Y14975D02*
X57773Y9975D01*
X57773Y2475D02*
X32773Y2475D01*
X77773Y14975D02*
X77773Y9975D01*
X77773Y2475D02*
X57773Y2475D01*
X97773Y14975D02*
X97773Y5600D01*
X97773Y2475D02*
X77773Y2475D01*
X57290Y46225D02*
X67133Y46225D01*
X57290Y46225D02*
X49416Y46225D01*
X49416Y41537D01*
X80912Y46225D02*
X90585Y46225D01*
X5273Y7475D02*
X10273Y7475D01*
X2773Y7475D02*
X2773Y17475D01*
X2773Y7475D02*
X2773Y2475D01*
X32773Y2475D01*
X80912Y46225D02*
X67133Y46225D01*
X2773Y127475D02*
X25273Y127475D01*
X117773Y127475D02*
X105391Y127475D01*
X210273Y127475D02*
X198203Y127475D01*
X21685Y47487D02*
X31210Y47487D01*
X21685Y47487D02*
X21523Y47650D01*
X21685Y47487D02*
X16698Y52475D01*
X15273Y52475D01*
X2773Y52475D02*
X2773Y74975D01*
X10273Y17475D02*
X10273Y7475D01*
X5273Y17475D02*
X10273Y17475D01*
X2773Y17475D02*
X2773Y52475D01*
X49416Y41306D02*
X48085Y39975D01*
X49416Y41306D02*
X49416Y41537D01*
X15273Y52475D02*
X15273Y56225D01*
X15273Y52475D02*
X2773Y52475D01*
X7773Y63725D02*
X15273Y56225D01*
X7773Y63725D02*
X7773Y69975D01*
X2773Y74975D01*
X2773Y79975D01*
X32773Y5775D02*
X32773Y2475D01*
X32773Y5775D02*
X37148Y5775D01*
X37148Y9975D01*
X49648Y9975D01*
X49648Y5600D01*
X57773Y5600D01*
X57773Y2475D01*
X57773Y9975D02*
X57773Y5600D01*
X57773Y9975D02*
X69648Y9975D01*
X69648Y5600D01*
X77773Y5600D01*
X77773Y2475D01*
X77773Y9975D02*
X77773Y5600D01*
X77773Y9975D02*
X89648Y9975D01*
X89648Y5600D01*
X97773Y5600D01*
X97773Y2475D01*
X97773Y14975D02*
X102148Y14975D01*
X102148Y18100D01*
X116523Y18100D01*
X117773Y16850D01*
X123398Y16850D01*
X125155Y18607D01*
X125155Y2475D01*
X2773Y79975D02*
X7148Y84350D01*
X2773Y79975D02*
X2773Y127475D01*
X7148Y84350D02*
X7148Y98725D01*
X17773Y109350D02*
X7148Y98725D01*
X17773Y109350D02*
X25273Y109350D01*
X25273Y127475D01*
X35391Y127475D01*
X15273Y7475D02*
X10273Y7475D01*
X19198Y7475D02*
X19198Y5775D01*
X15273Y17475D02*
X10273Y17475D01*
X17773Y17475D02*
X17773Y7475D01*
X19198Y7475D02*
X17773Y7475D01*
X5273Y17475D02*
X5273Y7475D01*
X5273Y17475D02*
X2773Y17475D01*
X5273Y7475D02*
X2773Y7475D01*
X15273Y7475D02*
X15273Y17475D01*
X17773Y7475D02*
X15273Y7475D01*
X17773Y17475D02*
X15273Y17475D01*
X117773Y113100D02*
X105391Y113100D01*
X105391Y127475D01*
X117773Y113100D02*
X117773Y127475D01*
X128203Y127475D01*
X210273Y113100D02*
X198203Y113100D01*
X198203Y127475D01*
X210273Y113100D02*
X210273Y127475D01*
X220391Y127475D01*
X290391Y113100D02*
X302773Y113100D01*
X290391Y113100D02*
X290391Y127475D01*
X302773Y113100D02*
X302773Y127475D01*
X297773Y23100D02*
X297773Y2475D01*
X287655Y2475D01*
X297773Y23100D02*
X302773Y28100D01*
X302773Y2475D01*
X302773Y102475D02*
X290391Y102475D01*
X302773Y102475D02*
X302773Y113100D01*
X290391Y102475D02*
X290391Y81215D01*
X294648Y76958D01*
X294648Y71850D01*
X288710Y65912D02*
X294648Y71850D01*
X201835Y65912D02*
X125273Y65912D01*
X125273Y64037D02*
X125273Y65912D01*
X125898Y64037D02*
X204335Y64037D01*
X294960Y64037D02*
X297148Y61850D01*
X297148Y58100D01*
X295273Y56225D01*
X295273Y46225D01*
X302773Y38725D01*
X302773Y102475D01*
X217655Y16850D02*
X205273Y16850D01*
X217655Y16850D02*
X217655Y2475D01*
X205273Y16850D02*
X205273Y2475D01*
X195155Y2475D01*
X125155Y48735D02*
X121210Y48735D01*
X121210Y59350D01*
X125898Y64037D01*
X125273Y64037D01*
X114335Y42162D02*
X125155Y42162D01*
X125155Y18607D01*
X114335Y42162D02*
X105585Y33412D01*
X105585Y59350D01*
X121210Y59350D01*
X105391Y81215D02*
X114335Y90159D01*
X114335Y102475D01*
X117773Y105912D01*
X117773Y113100D01*
X114335Y102475D02*
X105391Y102475D01*
X105391Y81215D01*
X198203Y81215D02*
X206523Y89534D01*
X206523Y102787D01*
X210273Y106537D01*
X210273Y113100D01*
X206523Y102787D02*
X198203Y102787D01*
X198203Y81215D01*
X217655Y48735D02*
X209023Y40103D01*
X209023Y27475D01*
X205273Y23725D01*
X205273Y16850D01*
X209023Y27475D02*
X217655Y27475D01*
X217655Y48735D01*
X198203Y81215D02*
X201835Y77583D01*
X201835Y65912D01*
X210898Y65912D01*
X206523Y89534D02*
X210898Y85159D01*
X210898Y65912D01*
X288710Y65912D01*
X217655Y48735D02*
X213710Y52679D01*
X213710Y64037D01*
X294960Y64037D01*
X209023Y40103D02*
X204335Y44790D01*
X204335Y64037D01*
X213710Y64037D01*
G54D18*
X97103Y14975D02*
X93836Y14975D01*
X57103Y14975D02*
X53836Y14975D01*
X77103Y14975D02*
X73836Y14975D01*
G54D24*
X22773Y7175D03*
X22773Y12775D03*
X31210Y47487D03*
X31210Y53087D03*
G54D25*
X97773Y14975D03*
X92773Y14975D03*
X87773Y14975D03*
X57773Y14975D03*
X52773Y14975D03*
X47773Y14975D03*
X77773Y14975D03*
X72773Y14975D03*
X67773Y14975D03*
G54D26*
X21523Y56050D03*
X21523Y47650D03*
X32773Y14175D03*
X32773Y5775D03*
G54D27*
X32000Y22475D03*
X19795Y22475D03*
X32000Y38100D03*
X19795Y38100D03*
G54D28*
X49335Y49662D03*
X47460Y53412D03*
X46835Y35912D03*
G54D29*
X60273Y49350D03*
X56210Y53100D03*
X54023Y49662D03*
X52148Y53100D03*
X51210Y35912D03*
X53398Y38725D03*
X55273Y35912D03*
X59335Y36850D03*
X62148Y53100D03*
X64960Y49350D03*
X66835Y53412D03*
X69023Y49350D03*
X71210Y53412D03*
X73085Y49350D03*
X74960Y53412D03*
X77148Y49350D03*
X79023Y53412D03*
X96835Y49350D03*
X94648Y53100D03*
X92773Y49350D03*
X89960Y53100D03*
X87773Y49350D03*
X84960Y53100D03*
X83085Y49350D03*
X60898Y42162D03*
X63085Y36850D03*
X64648Y42162D03*
X69023Y36850D03*
X71210Y42162D03*
X73085Y36850D03*
X74960Y42162D03*
X77148Y36850D03*
X98398Y35287D03*
X94960Y34662D03*
X92773Y36850D03*
X88710Y36850D03*
X88398Y40912D03*
X83710Y38100D03*
X83085Y42162D03*
X79023Y42162D03*
G54D30*
X20273Y106225D03*
X39960Y63412D03*
X16835Y103100D03*
X35585Y61850D03*
X13398Y99975D03*
X39960Y59037D03*
X9960Y96850D03*
X36523Y56225D03*
X121835Y64350D03*
X121210Y86850D03*
X118398Y63725D03*
X119023Y83412D03*
X114960Y63100D03*
X118085Y79975D03*
X111523Y62475D03*
X116523Y76537D03*
X111835Y66537D03*
X113085Y80600D03*
X108398Y65912D03*
X111523Y77162D03*
X104960Y65287D03*
X108085Y77162D03*
X122460Y39037D03*
X114960Y20912D03*
X119023Y37162D03*
X111523Y20912D03*
X115585Y35287D03*
X108085Y20912D03*
X112148Y33412D03*
X105273Y23725D03*
X108710Y31537D03*
X105273Y27162D03*
X92773Y8725D03*
X39960Y51225D03*
X39960Y35600D03*
X52773Y8725D03*
X36523Y52475D03*
X37148Y38412D03*
X72773Y8725D03*
G54D31*
X48085Y39975D03*
G54D32*
X285273Y69975D03*
X275273Y69975D03*
X265273Y69975D03*
X255273Y69975D03*
X245273Y69975D03*
X235273Y69975D03*
X225273Y69975D03*
X215273Y69975D03*
X30273Y69975D03*
X40273Y69975D03*
X50273Y69975D03*
X60273Y69975D03*
X70273Y69975D03*
X80273Y69975D03*
X90273Y69975D03*
X100273Y69975D03*
X123085Y69975D03*
X193085Y69975D03*
X183085Y69975D03*
X173085Y69975D03*
X163085Y69975D03*
X153085Y69975D03*
X143085Y69975D03*
X133085Y69975D03*
X222773Y59975D03*
X232773Y59975D03*
X242773Y59975D03*
X252773Y59975D03*
X262773Y59975D03*
X272773Y59975D03*
X282773Y59975D03*
X292773Y59975D03*
X200273Y59975D03*
X189960Y59662D03*
X180273Y59975D03*
X170273Y59975D03*
X160273Y59975D03*
X150273Y59975D03*
X140273Y59975D03*
X130273Y59975D03*
G54D33*
X232773Y7475D03*
X242773Y7475D03*
X252773Y7475D03*
X262773Y7475D03*
X272773Y7475D03*
X282773Y7475D03*
X292773Y7475D03*
X140273Y7475D03*
X150273Y7475D03*
X160273Y7475D03*
X170273Y7475D03*
X180273Y7475D03*
X190273Y7475D03*
X200273Y7475D03*
G54D34*
X183085Y122475D03*
X173085Y122475D03*
X163085Y122475D03*
X153085Y122475D03*
X143085Y122475D03*
X133085Y122475D03*
X123085Y122475D03*
X90273Y122475D03*
X80273Y122475D03*
X70273Y122475D03*
X60273Y122475D03*
X50273Y122475D03*
X40273Y122475D03*
X30273Y122475D03*
X275273Y122475D03*
X265273Y122475D03*
X255273Y122475D03*
X245273Y122475D03*
X235273Y122475D03*
X225273Y122475D03*
X215273Y122475D03*
G54D35*
X10273Y47475D03*
X10273Y37475D03*
X10273Y27475D03*
X10273Y17475D03*
X10273Y7475D03*
G54D36*
X212773Y22475D03*
X222773Y22475D03*
X232773Y22475D03*
X242773Y22475D03*
X252773Y22475D03*
X262773Y22475D03*
X272773Y22475D03*
X282773Y22475D03*
X292773Y22475D03*
X120273Y22475D03*
X130273Y22475D03*
X140273Y22475D03*
X150273Y22475D03*
X160273Y22475D03*
X170273Y22475D03*
X180273Y22475D03*
X190273Y22475D03*
X200273Y22475D03*
G54D37*
X203085Y107475D03*
X193085Y107475D03*
X183085Y107475D03*
X173085Y107475D03*
X163085Y107475D03*
X153085Y107475D03*
X143085Y107475D03*
X133085Y107475D03*
X123085Y107475D03*
X110273Y107475D03*
X100273Y107475D03*
X90273Y107475D03*
X80273Y107475D03*
X70273Y107475D03*
X60273Y107475D03*
X50273Y107475D03*
X40273Y107475D03*
X30273Y107475D03*
X295273Y107475D03*
X285273Y107475D03*
X275273Y107475D03*
X265273Y107475D03*
X255273Y107475D03*
X245273Y107475D03*
X235273Y107475D03*
X225273Y107475D03*
X215273Y107475D03*
G54D38*
X100597Y59015D03*
X98629Y59015D03*
X96660Y59015D03*
X94692Y59015D03*
X92723Y59015D03*
X90755Y59015D03*
X88786Y59015D03*
X86818Y59015D03*
X84849Y59015D03*
X82881Y59015D03*
X80912Y59015D03*
X78944Y59015D03*
X76975Y59015D03*
X75007Y59015D03*
X73038Y59015D03*
X71070Y59015D03*
X69101Y59015D03*
X67133Y59015D03*
X65164Y59015D03*
X63196Y59015D03*
X61227Y59015D03*
X59259Y59015D03*
X57290Y59015D03*
X55322Y59015D03*
X53353Y59015D03*
X51385Y59015D03*
X49416Y59015D03*
X47448Y59015D03*
X47448Y29685D03*
X49416Y29685D03*
X51385Y29685D03*
X53353Y29685D03*
X55322Y29685D03*
X57290Y29685D03*
X59259Y29685D03*
X61227Y29685D03*
X63196Y29685D03*
X65164Y29685D03*
X67133Y29685D03*
X69101Y29685D03*
X71070Y29685D03*
X73038Y29685D03*
X75007Y29685D03*
X76975Y29685D03*
X78944Y29685D03*
X80912Y29685D03*
X82881Y29685D03*
X84849Y29685D03*
X86818Y29685D03*
X88786Y29685D03*
X90755Y29685D03*
X92723Y29685D03*
X94692Y29685D03*
X96660Y29685D03*
X98629Y29685D03*
X100597Y29685D03*
G54D39*
X198203Y81215D03*
X187967Y77475D03*
X188203Y96215D03*
X177967Y92475D03*
X178203Y81215D03*
X167967Y77475D03*
X168203Y96215D03*
X157967Y92475D03*
X158203Y81215D03*
X147967Y77475D03*
X148203Y96215D03*
X137967Y92475D03*
X138203Y81215D03*
X127967Y77475D03*
X128203Y96215D03*
X117967Y92475D03*
X105391Y81215D03*
X95155Y77475D03*
X95391Y96215D03*
X85155Y92475D03*
X85391Y81215D03*
X75155Y77475D03*
X75391Y96215D03*
X65155Y92475D03*
X65391Y81215D03*
X55155Y77475D03*
X55391Y96215D03*
X45155Y92475D03*
X45391Y81215D03*
X35155Y77475D03*
X35391Y96215D03*
X25155Y92475D03*
X290391Y81215D03*
X280155Y77475D03*
X280391Y96215D03*
X270155Y92475D03*
X270391Y81215D03*
X260155Y77475D03*
X260391Y96215D03*
X250155Y92475D03*
X250391Y81215D03*
X240155Y77475D03*
X240391Y96215D03*
X230155Y92475D03*
X230391Y81215D03*
X220155Y77475D03*
X220391Y96215D03*
X210155Y92475D03*
G54D40*
X217655Y48735D03*
X227891Y52475D03*
X227655Y33735D03*
X237891Y37475D03*
X237655Y48735D03*
X247891Y52475D03*
X247655Y33735D03*
X257891Y37475D03*
X257655Y48735D03*
X267891Y52475D03*
X267655Y33735D03*
X277891Y37475D03*
X277655Y48735D03*
X287891Y52475D03*
X287655Y33735D03*
X297891Y37475D03*
X125155Y48735D03*
X135391Y52475D03*
X135155Y33735D03*
X145391Y37475D03*
X145155Y48735D03*
X155391Y52475D03*
X155155Y33735D03*
X165391Y37475D03*
X165155Y48735D03*
X175391Y52475D03*
X175155Y33735D03*
X185391Y37475D03*
X185155Y48735D03*
X195391Y52475D03*
X195155Y33735D03*
X205391Y37475D03*
G54D41*
X198203Y73735D03*
X188203Y88735D03*
X178203Y73735D03*
X168203Y88735D03*
X158203Y73735D03*
X148203Y88735D03*
X138203Y73735D03*
X128203Y88735D03*
X105391Y73735D03*
X95391Y88735D03*
X85391Y73735D03*
X75391Y88735D03*
X65391Y73735D03*
X55391Y88735D03*
X45391Y73735D03*
X35391Y88735D03*
X290391Y73735D03*
X280391Y88735D03*
X270391Y73735D03*
X260391Y88735D03*
X250391Y73735D03*
X240391Y88735D03*
X230391Y73735D03*
X220391Y88735D03*
G54D42*
X217655Y56215D03*
X227655Y41215D03*
X237655Y56215D03*
X247655Y41215D03*
X257655Y56215D03*
X267655Y41215D03*
X277655Y56215D03*
X287655Y41215D03*
X125155Y56215D03*
X135155Y41215D03*
X145155Y56215D03*
X155155Y41215D03*
X165155Y56215D03*
X175155Y41215D03*
X185155Y56215D03*
X195155Y41215D03*
G54D43*
X222773Y7475D03*
X130273Y7475D03*
G54D44*
X193085Y122475D03*
X100273Y122475D03*
X285273Y122475D03*
G54D45*
X10273Y77475D03*
G36*
X7148Y98725D02*
X2773Y127475D01*
X17773Y109350D01*
X7148Y98725D01*
G37*
G36*
X2773Y127475D02*
X7148Y98725D01*
X2773Y79975D01*
X2773Y127475D01*
G37*
G36*
X17773Y109350D02*
X2773Y127475D01*
X25273Y127475D01*
X17773Y109350D01*
G37*
G36*
X17773Y109350D02*
X25273Y127475D01*
X25273Y109350D01*
X17773Y109350D01*
G37*
G36*
X2773Y79975D02*
X7148Y98725D01*
X7148Y84350D01*
X2773Y79975D01*
G37*
G36*
X2773Y2475D02*
X15273Y7475D01*
X19023Y5600D01*
X2773Y2475D01*
G37*
G36*
X2773Y2475D02*
X19023Y5600D01*
X32773Y2475D01*
X2773Y2475D01*
G37*
G36*
X32773Y2475D02*
X19023Y5600D01*
X32773Y5600D01*
X32773Y2475D01*
G37*
G36*
X15273Y7475D02*
X2773Y2475D01*
X5273Y7475D01*
X15273Y7475D01*
G37*
G36*
X5273Y7475D02*
X2773Y2475D01*
X2773Y17475D01*
X5273Y7475D01*
G37*
G36*
X5273Y7475D02*
X2773Y17475D01*
X5273Y17475D01*
X5273Y7475D01*
G37*
G36*
X19023Y5600D02*
X15273Y7475D01*
X17773Y7475D01*
X19023Y5600D01*
G37*
G36*
X17773Y7475D02*
X15273Y7475D01*
X15273Y17475D01*
X17773Y7475D01*
G37*
G36*
X17773Y7475D02*
X15273Y17475D01*
X17773Y17475D01*
X17773Y7475D01*
G37*
G36*
X19023Y5600D02*
X17773Y7475D01*
X19023Y7475D01*
X19023Y5600D01*
G37*
G36*
X125273Y2475D02*
X77773Y5600D01*
X89648Y5600D01*
X125273Y2475D01*
G37*
G36*
X77773Y5600D02*
X125273Y2475D01*
X32773Y2475D01*
X77773Y5600D01*
G37*
G36*
X77773Y5600D02*
X32773Y2475D01*
X69648Y5600D01*
X77773Y5600D01*
G37*
G36*
X69648Y5600D02*
X32773Y2475D01*
X57773Y5600D01*
X69648Y5600D01*
G37*
G36*
X125273Y2475D02*
X89648Y5600D01*
X97773Y5600D01*
X125273Y2475D01*
G37*
G36*
X125273Y2475D02*
X97773Y5600D01*
X117773Y16850D01*
X125273Y2475D01*
G37*
G36*
X57773Y5600D02*
X32773Y2475D01*
X49648Y5600D01*
X57773Y5600D01*
G37*
G36*
X117773Y16850D02*
X97773Y5600D01*
X102148Y14975D01*
X117773Y16850D01*
G37*
G36*
X49648Y5600D02*
X32773Y2475D01*
X37148Y5600D01*
X49648Y5600D01*
G37*
G36*
X125273Y2475D02*
X117773Y16850D01*
X123398Y16850D01*
X125273Y2475D01*
G37*
G36*
X117773Y16850D02*
X102148Y14975D01*
X116523Y18100D01*
X117773Y16850D01*
G37*
G36*
X116523Y18100D02*
X102148Y14975D01*
X102148Y18100D01*
X116523Y18100D01*
G37*
G36*
X125273Y2475D02*
X123398Y16850D01*
X125273Y18725D01*
X125273Y2475D01*
G37*
G36*
X49648Y5600D02*
X37148Y5600D01*
X37148Y9975D01*
X49648Y5600D01*
G37*
G36*
X49648Y5600D02*
X37148Y9975D01*
X49648Y9975D01*
X49648Y5600D01*
G37*
G36*
X69648Y5600D02*
X57773Y5600D01*
X57773Y9975D01*
X69648Y5600D01*
G37*
G36*
X69648Y5600D02*
X57773Y9975D01*
X69648Y9975D01*
X69648Y5600D01*
G37*
G36*
X89648Y5600D02*
X77773Y5600D01*
X77773Y9975D01*
X89648Y5600D01*
G37*
G36*
X89648Y5600D02*
X77773Y9975D01*
X89648Y9975D01*
X89648Y5600D01*
G37*
G36*
X102148Y14975D02*
X97773Y5600D01*
X97773Y14975D01*
X102148Y14975D01*
G37*
G36*
X37148Y5600D02*
X32773Y2475D01*
X32773Y5600D01*
X37148Y5600D01*
G37*
G36*
X205273Y2475D02*
X217773Y16850D01*
X217773Y2475D01*
X205273Y2475D01*
G37*
G36*
X217773Y16850D02*
X205273Y2475D01*
X205273Y16850D01*
X217773Y16850D01*
G37*
G36*
X297773Y22787D02*
X302773Y2475D01*
X297773Y2475D01*
X297773Y22787D01*
G37*
G36*
X302773Y2475D02*
X297773Y22787D01*
X302773Y27787D01*
X302773Y2475D01*
G37*
G36*
X198085Y127162D02*
X210273Y113100D01*
X198085Y113100D01*
X198085Y127162D01*
G37*
G36*
X210273Y113100D02*
X198085Y127162D01*
X210273Y127162D01*
X210273Y113100D01*
G37*
G36*
X117773Y127475D02*
X105273Y113100D01*
X105273Y127475D01*
X117773Y127475D01*
G37*
G36*
X105273Y113100D02*
X117773Y127475D01*
X117773Y113100D01*
X105273Y113100D01*
G37*
G36*
X290585Y127475D02*
X302773Y112787D01*
X290585Y112787D01*
X290585Y127475D01*
G37*
G36*
X302773Y112787D02*
X290585Y127475D01*
X302773Y127475D01*
X302773Y112787D01*
G37*
G36*
X288398Y65912D02*
X294960Y64037D01*
X125273Y64037D01*
X288398Y65912D01*
G37*
G36*
X288398Y65912D02*
X125273Y64037D01*
X125273Y65912D01*
X288398Y65912D01*
G37*
G36*
X294960Y64037D02*
X288398Y65912D01*
X294648Y72162D01*
X294960Y64037D01*
G37*
G36*
X294960Y64037D02*
X294648Y72162D01*
X297148Y61850D01*
X294960Y64037D01*
G37*
G36*
X297148Y61850D02*
X294648Y72162D01*
X302773Y38725D01*
X297148Y61850D01*
G37*
G36*
X302773Y38725D02*
X294648Y72162D01*
X302773Y102475D01*
X302773Y38725D01*
G37*
G36*
X302773Y102475D02*
X294648Y72162D01*
X294648Y76850D01*
X302773Y102475D01*
G37*
G36*
X302773Y102475D02*
X294648Y76850D01*
X290273Y81225D01*
X302773Y102475D01*
G37*
G36*
X302773Y102475D02*
X290273Y81225D01*
X290273Y102475D01*
X302773Y102475D01*
G37*
G36*
X297148Y61850D02*
X302773Y38725D01*
X297148Y58100D01*
X297148Y61850D01*
G37*
G36*
X297148Y58100D02*
X302773Y38725D01*
X295273Y46225D01*
X297148Y58100D01*
G37*
G36*
X297148Y58100D02*
X295273Y46225D01*
X295273Y56225D01*
X297148Y58100D01*
G37*
G36*
X105585Y59350D02*
X114335Y42162D01*
X105585Y33412D01*
X105585Y59350D01*
G37*
G36*
X114335Y42162D02*
X105585Y59350D01*
X121210Y59350D01*
X114335Y42162D01*
G37*
G36*
X114335Y42162D02*
X121210Y59350D01*
X121210Y48725D01*
X114335Y42162D01*
G37*
G36*
X114335Y42162D02*
X121210Y48725D01*
X125273Y42162D01*
X114335Y42162D01*
G37*
G36*
X125273Y42162D02*
X121210Y48725D01*
X125273Y48725D01*
X125273Y42162D01*
G37*
G36*
X105585Y102475D02*
X114648Y102475D01*
X114648Y89975D01*
X105585Y102475D01*
G37*
G36*
X105585Y102475D02*
X114648Y89975D01*
X105585Y80912D01*
X105585Y102475D01*
G37*
G36*
X217773Y27475D02*
X209023Y27475D01*
X209023Y40287D01*
X217773Y27475D01*
G37*
G36*
X217773Y27475D02*
X209023Y40287D01*
X217773Y48725D01*
X217773Y27475D01*
G37*
G36*
X217773Y48725D02*
X209023Y40287D01*
X213710Y52787D01*
X217773Y48725D01*
G37*
G36*
X213710Y52787D02*
X209023Y40287D01*
X204335Y44975D01*
X213710Y52787D01*
G37*
G36*
X213710Y52787D02*
X204335Y44975D01*
X204335Y64037D01*
X213710Y52787D01*
G37*
G36*
X213710Y52787D02*
X204335Y64037D01*
X213710Y64037D01*
X213710Y52787D01*
G37*
G36*
X198398Y102787D02*
X206523Y89662D01*
X198398Y80912D01*
X198398Y102787D01*
G37*
G36*
X206523Y89662D02*
X198398Y102787D01*
X206523Y102787D01*
X206523Y89662D01*
G37*
G36*
X198398Y80912D02*
X206523Y89662D01*
X201835Y77475D01*
X198398Y80912D01*
G37*
G36*
X201835Y77475D02*
X206523Y89662D01*
X210898Y85287D01*
X201835Y77475D01*
G37*
G36*
X201835Y77475D02*
X210898Y85287D01*
X210898Y65912D01*
X201835Y77475D01*
G37*
G36*
X201835Y77475D02*
X210898Y65912D01*
X201835Y65912D01*
X201835Y77475D01*
G37*
G36*
X2773Y52475D02*
X7773Y63725D01*
X15273Y56225D01*
X2773Y52475D01*
G37*
G36*
X7773Y63725D02*
X2773Y52475D01*
X2773Y74975D01*
X7773Y63725D01*
G37*
G36*
X2773Y52475D02*
X15273Y56225D01*
X15273Y52475D01*
X2773Y52475D01*
G37*
G36*
X7773Y63725D02*
X2773Y74975D01*
X7773Y69975D01*
X7773Y63725D01*
G37*
M02*
